<svg xmlns="http://www.w3.org/2000/svg" height="2048" width="2048" shape-rendering="geometricPrecision" image-rendering="optimizeQuality" fill-rule="evenodd" xmlns:v="https://vecta.io/nano"><path d="M1688.02 565.913c-30.376-27.574-68.845-45.658-110.92-50.307-91.447-10.235-183.723-15.387-276.305-17.97-91.988-2.565-184.37-2.565-276.547-2.512-92.164-.053-184.54-.053-276.54 2.512-92.593 2.583-184.896 7.735-276.395 17.97-42.033 4.65-80.486 22.743-110.834 50.33-30.155 27.41-52.3 64.22-62.002 106.533-13.084 56.72-19.703 115.9-23.047 175.445-3.357 59.798-3.44 118.84-3.44 176.156 0 57.24.001 116.205 3.28 176.04 3.262 59.52 9.8 118.696 22.892 175.426 9.75 42.332 31.916 79.153 62.068 106.56 30.33 27.57 68.745 45.652 110.766 50.303 91.51 10.234 183.814 15.386 276.407 17.968 92 2.565 184.375 2.565 276.552 2.512l276.58-2.512c92.58-2.582 184.856-7.734 276.356-17.968 42.013-4.65 80.42-22.727 110.763-50.29 30.168-27.405 52.364-64.23 62.178-106.574 13.034-56.732 19.573-115.91 22.847-175.426 3.23-58.693 3.257-118.234 3.253-176.04h.063v-2.902h-.063c.002-114.85.002-236.492-25.782-348.698-9.75-42.333-31.94-79.15-62.128-106.556zm-869.905 686.52V739.358l518.412 270.59-518.412 268.748v-26.263z" fill="#424242"/></svg>